<svg width="8" height="9" viewBox="0 0 8 9" fill="none" xmlns="http://www.w3.org/2000/svg">
<path d="M3.66665 6.50001C3.66665 6.86668 3.36665 7.16668 2.99998 7.16668C2.63331 7.16668 2.33331 6.86668 2.33331 6.50001C2.33331 6.13334 2.63331 5.83334 2.99998 5.83334C3.36665 5.83334 3.66665 6.13334 3.66665 6.50001ZM2.99998 3.83334C2.63331 3.83334 2.33331 4.13334 2.33331 4.50001C2.33331 4.86668 2.63331 5.16668 2.99998 5.16668C3.36665 5.16668 3.66665 4.86668 3.66665 4.50001C3.66665 4.13334 3.36665 3.83334 2.99998 3.83334ZM2.99998 1.83334C2.63331 1.83334 2.33331 2.13334 2.33331 2.50001C2.33331 2.86668 2.63331 3.16668 2.99998 3.16668C3.36665 3.16668 3.66665 2.86668 3.66665 2.50001C3.66665 2.13334 3.36665 1.83334 2.99998 1.83334ZM4.99998 3.16668C5.36665 3.16668 5.66665 2.86668 5.66665 2.50001C5.66665 2.13334 5.36665 1.83334 4.99998 1.83334C4.63331 1.83334 4.33331 2.13334 4.33331 2.50001C4.33331 2.86668 4.63331 3.16668 4.99998 3.16668ZM4.99998 3.83334C4.63331 3.83334 4.33331 4.13334 4.33331 4.50001C4.33331 4.86668 4.63331 5.16668 4.99998 5.16668C5.36665 5.16668 5.66665 4.86668 5.66665 4.50001C5.66665 4.13334 5.36665 3.83334 4.99998 3.83334ZM4.99998 5.83334C4.63331 5.83334 4.33331 6.13334 4.33331 6.50001C4.33331 6.86668 4.63331 7.16668 4.99998 7.16668C5.36665 7.16668 5.66665 6.86668 5.66665 6.50001C5.66665 6.13334 5.36665 5.83334 4.99998 5.83334Z" fill="black"/>
</svg>
