<svg width="8" height="7" viewBox="0 0 8 7" fill="none" xmlns="http://www.w3.org/2000/svg">
<path d="M5.59167 1.13635L6.84444 2.3698C6.89722 2.42176 6.89722 2.50654 6.84444 2.55851L3.81111 5.54503L2.52222 5.68588C2.35 5.70502 2.20417 5.56144 2.22361 5.39187L2.36667 4.12288L5.4 1.13635C5.45278 1.08439 5.53889 1.08439 5.59167 1.13635ZM7.84167 0.823208L7.16389 0.15589C6.95278 -0.0519633 6.60972 -0.0519633 6.39722 0.15589L5.90556 0.639969C5.85278 0.691932 5.85278 0.776714 5.90556 0.828678L7.15833 2.06212C7.21111 2.11408 7.29722 2.11408 7.35 2.06212L7.84167 1.57804C8.05278 1.36882 8.05278 1.03106 7.84167 0.823208ZM5.33333 4.73276V6.12483H0.888889V1.74897H4.08056C4.125 1.74897 4.16667 1.7312 4.19861 1.70111L4.75417 1.15413C4.85972 1.05021 4.78472 0.873803 4.63611 0.873803H0.666667C0.298611 0.873803 0 1.16781 0 1.53018V6.34362C0 6.706 0.298611 7 0.666667 7H5.55556C5.92361 7 6.22222 6.706 6.22222 6.34362V4.18578C6.22222 4.03946 6.04306 3.96699 5.9375 4.06954L5.38194 4.61653C5.35139 4.64798 5.33333 4.689 5.33333 4.73276Z" fill="#0066FF"/>
</svg>
