<svg width="7" height="7" viewBox="0 0 7 7" fill="none" xmlns="http://www.w3.org/2000/svg">
<path d="M5.11903 1.76806C4.67783 1.35495 4.10527 1.1285 3.49785 1.12903C2.4047 1.12999 1.46097 1.87953 1.2004 2.91925C1.18143 2.99494 1.114 3.04839 1.03597 3.04839H0.22726C0.121442 3.04839 0.0410544 2.95232 0.060629 2.84832C0.36599 1.22675 1.7897 0 3.5 0C4.43777 0 5.28939 0.368855 5.91775 0.969345L6.42179 0.465302C6.63517 0.251929 7 0.40305 7 0.704813V2.59677C7 2.78384 6.84836 2.93548 6.66129 2.93548H4.76933C4.46757 2.93548 4.31645 2.57065 4.52982 2.35726L5.11903 1.76806ZM0.33871 4.06452H2.23067C2.53243 4.06452 2.68355 4.42935 2.47018 4.64274L1.88097 5.23195C2.32217 5.64508 2.89477 5.87153 3.5022 5.87098C4.59479 5.86999 5.53891 5.12097 5.7996 4.08077C5.81857 4.00509 5.886 3.95164 5.96403 3.95164H6.77275C6.87857 3.95164 6.95896 4.04771 6.93938 4.15171C6.63401 5.77325 5.2103 7 3.5 7C2.56223 7 1.71061 6.63115 1.08225 6.03065L0.578206 6.5347C0.364833 6.74807 0 6.59695 0 6.29519V4.40323C0 4.21616 0.151643 4.06452 0.33871 4.06452Z" fill="#0066FF"/>
</svg>
