<svg width="8" height="9" viewBox="0 0 8 9" fill="none" xmlns="http://www.w3.org/2000/svg">
<path d="M4 0.5C1.79032 0.5 0 2.29032 0 4.5C0 6.70968 1.79032 8.5 4 8.5C6.20968 8.5 8 6.70968 8 4.5C8 2.29032 6.20968 0.5 4 0.5ZM6.32258 4.95161C6.32258 5.05806 6.23548 5.14516 6.12903 5.14516H4.64516V6.62903C4.64516 6.73548 4.55806 6.82258 4.45161 6.82258H3.54839C3.44194 6.82258 3.35484 6.73548 3.35484 6.62903V5.14516H1.87097C1.76452 5.14516 1.67742 5.05806 1.67742 4.95161V4.04839C1.67742 3.94194 1.76452 3.85484 1.87097 3.85484H3.35484V2.37097C3.35484 2.26452 3.44194 2.17742 3.54839 2.17742H4.45161C4.55806 2.17742 4.64516 2.26452 4.64516 2.37097V3.85484H6.12903C6.23548 3.85484 6.32258 3.94194 6.32258 4.04839V4.95161Z" fill="#00AFBF"/>
</svg>
