<svg width="8" height="9" viewBox="0 0 8 9" fill="none" xmlns="http://www.w3.org/2000/svg">
<path d="M8 4.5C8 6.70915 6.20915 8.5 4 8.5C1.79085 8.5 0 6.70915 0 4.5C0 2.29085 1.79085 0.5 4 0.5C6.20915 0.5 8 2.29085 8 4.5ZM3.53732 6.61797L6.50506 3.65023C6.60584 3.54945 6.60584 3.38605 6.50506 3.28527L6.14011 2.92032C6.03934 2.81953 5.87594 2.81953 5.77515 2.92032L3.35484 5.34061L2.22485 4.21063C2.12408 4.10985 1.96068 4.10985 1.85989 4.21063L1.49494 4.57558C1.39416 4.67635 1.39416 4.83976 1.49494 4.94053L3.17235 6.61795C3.27315 6.71874 3.43653 6.71874 3.53732 6.61797Z" fill="#5E00FF"/>
</svg>
